# xmcd
#
# Track frame offsets:
#	150
#	7462
#	16050
#	27712
#	35400
#	41025
#	49725
#	62662
#	78825
#	91275
#	104475
#	116962
#	125775
#	134962
#	150187
#	154387
#	168487
#	176210
#	184425
#	195225
#	203850
#	213562
#	225487
#	233212
#	246900
#
# Disc length: 3493 seconds
#
# Revision: 1
# Processed by: cddbd v1.4PL0 Copyright (c) Steve Scherf et al.
# Submitted via: audiograbber 1.80.04
#
DISCID=6e0da319
DTITLE=Various Artist - WPAQ: The Voice of the Blue Ridge Mountains
DYEAR=1900
DGENRE=Bluegrass
TTITLE0=Gurney Thomas Band - Ole Joe Clark
TTITLE1=Carolina Sunshine Trio - Conrbread and Butterbeans
TTITLE2=Lee and Juanita Moore - When the Angels Rolled the Stone Away
TTITLE3=Silvertone Gospel Harmonizers - I'm Living Here on Borrowed Land
TTITLE4=Reid Rakes - Chicken Reel
TTITLE5=The Skyline Serenaders - How Will I Explain About You?
TTITLE6=The Skyline Serenaders - Mississippi Sawyer
TTITLE7=Charlie Bowman - Weeping Willow
TTITLE8=Blue Ridge Mountain Boys - Forgive is Number One
TTITLE9=Juanita Moore with Lee Moore - Man of Constant Sorrow
TTITLE10=Pate and Leroy Martin - Honeysuckle Blues
TTITLE11=The Johnson Brothers and Ray Myers - A Mansion Will Be Mine
TTITLE12=The Draughn Trio - Feed Me Jesus
TTITLE13=Jim Eanes - There'll Come A Time
TTITLE14=Uncle Joe Johnson and the Blue Mountain Boys - Gonna Raise a Ruckus Toni
TTITLE14=ght
TTITLE15=Uncle Joe Johnson and the Blue Mountain Boys - Story of the Drunken Driv
TTITLE15=er
TTITLE16=Frank The California Kid (Frank Simon) - The Wreck of the Old 97
TTITLE17=The Hall Sisters - This World Can't Stand Long
TTITLE18=John Will Vipperman and Johnny Vipperman - Whoa Mule
TTITLE19=Lefty Hall with the Blue Mountain Boys - Natural Bridge Blues
TTITLE20=Mt. Zion Quartet - God Loves His Children
TTITLE21=Gospel Four Quartet - I'll Meet You by the River
TTITLE22=The Green Valley Boys with Benton Flipper - Cripple Creek
TTITLE23=Freindly Four Quartet - Way Down in my Soul
TTITLE24=Esker Hutchins, Leak Caudle, Benton Flippen - Billy in the Lowground
EXTD=
EXTT0=
EXTT1=
EXTT2=
EXTT3=
EXTT4=
EXTT5=
EXTT6=
EXTT7=
EXTT8=
EXTT9=
EXTT10=
EXTT11=
EXTT12=
EXTT13=
EXTT14=
EXTT15=
EXTT16=
EXTT17=
EXTT18=
EXTT19=
EXTT20=
EXTT21=
EXTT22=
EXTT23=
EXTT24=
PLAYORDER=
